REM Ripping Tool: trurip

FILE "Magical Dinosaur Tour (1990)(NEC)(US).img" BINARY
  TRACK 01 AUDIO
    INDEX 01 00:00:00
  TRACK 02 MODE1/2352
    INDEX 00 00:44:66
    INDEX 01 00:47:65
  TRACK 03 AUDIO
    INDEX 00 14:52:74
    INDEX 01 14:54:74
  TRACK 04 MODE1/2352
    INDEX 00 17:50:19
    INDEX 01 17:53:18

REM DISC HASHES
REM CRC32 : 06709d8c
REM MD5   : 8922dace321dae2971e8f3506b2f5b05
REM SHA1  : 9c01a059e3d914e1e5128c54873c195437d3b595

REM Gap Append Method: Prev [crc32]
REM Trk 01: 6d26aa51
REM Trk 02: 719b5b03
REM Trk 03: 2e3cae5f
REM Trk 04: 707fde9c

REM Gap Append Method: Prev [md5]
REM Trk 01: aa094d551a067ddf47757b2326361cb0
REM Trk 02: b310bc2e12ef7fad5b562af3ac427b5d
REM Trk 03: b5d1f46e6326ba91fee32df38d4c0d87
REM Trk 04: 2d93f89497690f5d86b49ba8b574805a

REM Gap Append Method: Prev [sha1]
REM Trk 01: 3e2baa013e48a2af5a71e258077cf9133bc62d66
REM Trk 02: c7b745849c059221ef677f6f6a792d78a25d7879
REM Trk 03: 8fccbf87a4f43b71f4f0bf2ea8757a11f5d5685f
REM Trk 04: 7c6b3918cf5cf8fca115f2c1ed27f0b50bc946e1

REM Gap Append Method: None [crc32]
REM Trk 01: 1a225e55
REM Trk 02: bb12c342
REM Trk 03: ac5e4ecc
REM Trk 04: 707fde9c
REM Gap 02: bce288eb
REM Gap 03: 7abe247f
REM Gap 04: e9c78e08

REM Gap Append Method: None [md5]
REM Trk 01: 76317df90c4d871c405756af9b668224
REM Trk 02: d2afe1585841e51a71cb8956a3b089b0
REM Trk 03: 09f70ee0e3adedbe63e7e0104697f4ef
REM Trk 04: 2d93f89497690f5d86b49ba8b574805a
REM Gap 02: ac5c84d695967c66a3274c97442ab7c4
REM Gap 03: 9df204fbc98bb8965081cb30a89715fc
REM Gap 04: 604c2b339b1741999a26cf5e6646583f

REM Gap Append Method: None [sha1]
REM Trk 01: 65ea1c6193bbfa4ca17bf058598a5a83a05953f9
REM Trk 02: 4ba1631efd6c7207f0177f210d1c5f764d78f60d
REM Trk 03: d546e20148276d4680f8d78d5eb9efd4f5abfde2
REM Trk 04: 7c6b3918cf5cf8fca115f2c1ed27f0b50bc946e1
REM Gap 02: cc7fcf4cbaa89f4d2b950e7a90561c1d4196adf0
REM Gap 03: cbe29e0bd725ef1194f8c47619dd42078e841de2
REM Gap 04: 7442f7a06aa0dc68a6dd072b3f63de396b082a99

REM Gap Append Method: Next [crc32]
REM Trk 01: 1a225e55
REM Trk 02: 98a14ab4
REM Trk 03: 9955f92f
REM Trk 04: 59d82061

REM Gap Append Method: Next [md5]
REM Trk 01: 76317df90c4d871c405756af9b668224
REM Trk 02: 6043c6f91bf105379d689a332c5eeedb
REM Trk 03: 9b3b7defeb734dd76b1a93ba1c12aac6
REM Trk 04: 712200da8da513948609ee681c81447e

REM Gap Append Method: Next [sha1]
REM Trk 01: 65ea1c6193bbfa4ca17bf058598a5a83a05953f9
REM Trk 02: edc5681c24b040279fb4838d8e229298f8dccd98
REM Trk 03: 99a860ae64a96d2def5ea0c42338b1cb3bc79a21
REM Trk 04: d912b55dcec2ac087bd7e657e0566437d6220b46

